<svg xmlns="http://www.w3.org/2000/svg" viewBox="0 0 800 450" width="800" height="450" role="img" aria-label="AI mentor">
<defs>
<linearGradient id="bg" x1="0" y1="0" x2="1" y2="1">
<stop offset="0" stop-color="#0a2135"/><stop offset="1" stop-color="#0b2740"/></linearGradient>
<linearGradient id="ac" x1="0" y1="0" x2="1" y2="0">
<stop offset="0" stop-color="#46c7e8"/><stop offset="1" stop-color="#18a6a6"/></linearGradient>
<radialGradient id="glow" cx="0.8" cy="0.1" r="0.9">
<stop offset="0" stop-color="#2386c8" stop-opacity="0.25"/><stop offset="1" stop-color="#2386c8" stop-opacity="0"/></radialGradient>
</defs>
<rect width="800" height="450" fill="url(#bg)"/>
<rect width="800" height="450" fill="url(#glow)"/><rect x="40" y="36" rx="14" ry="14" width="238" height="30" fill="#ffffff" fill-opacity="0.06" stroke="#46c7e8" stroke-opacity="0.35"/><text x="54" y="56" font-family="Inter,Arial" font-size="16" fill="#46c7e8">Community · Mentoring</text><circle cx="300" cy="230" r="40" fill="#2386c8"/><circle cx="460" cy="170" r="22" fill="url(#ac)"/><line x1="336" y1="230" x2="440" y2="170" stroke="#46c7e8" stroke-opacity="0.3"/><circle cx="540" cy="170" r="22" fill="url(#ac)"/><line x1="336" y1="230" x2="520" y2="170" stroke="#46c7e8" stroke-opacity="0.3"/><circle cx="620" cy="170" r="22" fill="url(#ac)"/><line x1="336" y1="230" x2="600" y2="170" stroke="#46c7e8" stroke-opacity="0.3"/><circle cx="460" cy="260" r="22" fill="url(#ac)"/><line x1="336" y1="230" x2="440" y2="260" stroke="#46c7e8" stroke-opacity="0.3"/><circle cx="540" cy="260" r="22" fill="url(#ac)"/><line x1="336" y1="230" x2="520" y2="260" stroke="#46c7e8" stroke-opacity="0.3"/><circle cx="620" cy="260" r="22" fill="url(#ac)"/><line x1="336" y1="230" x2="600" y2="260" stroke="#46c7e8" stroke-opacity="0.3"/><text x="40" y="410" font-family="Inter,Arial" font-weight="700" font-size="26" fill="#e8eef5">AI Mentor — CSR Rural Education</text><text x="40" y="436" font-family="Inter,Arial" font-size="15" fill="#9fb2c4">Explaining AI in plain language</text></svg>