<svg xmlns="http://www.w3.org/2000/svg" viewBox="0 0 800 450" width="800" height="450" role="img" aria-label="Brain-Machine Interface">
<defs>
<linearGradient id="bg" x1="0" y1="0" x2="1" y2="1">
<stop offset="0" stop-color="#0a2135"/><stop offset="1" stop-color="#0b2740"/></linearGradient>
<radialGradient id="glow" cx="0.8" cy="0.1" r="0.9">
<stop offset="0" stop-color="#2386c8" stop-opacity="0.25"/><stop offset="1" stop-color="#2386c8" stop-opacity="0"/></radialGradient>
</defs>
<rect width="800" height="450" fill="url(#bg)"/>
<rect width="800" height="450" fill="url(#glow)"/><rect x="40" y="36" rx="14" ry="14" width="150" height="30" fill="#ffffff" fill-opacity="0.06" stroke="#46c7e8" stroke-opacity="0.35"/><text x="54" y="56" font-family="Inter,Arial" font-size="16" fill="#46c7e8">BMI · EEG</text><path d="M370 130 q-45 5 -50 55 q-4 30 15 45 q-15 20 5 45 q15 20 45 15 q10 20 40 15 q30 -5 30 -35 q25 -5 25 -35 q0 -25 -20 -35 q10 -25 -10 -45 q-20 -20 -45 -10 q-10 -20 -35 -15 z" fill="none" stroke="#46c7e8" stroke-opacity="0.55" stroke-width="2.5"/><path d="M330 180 l25 10 l10 -20 l20 25 l15 -15 l20 20 l25 -10" fill="none" stroke="#18a6a6" stroke-opacity="0.8" stroke-width="2.5" stroke-linecap="round" stroke-linejoin="round"/><circle cx="330" cy="180" r="4" fill="#46c7e8"/><circle cx="420" cy="195" r="4" fill="#46c7e8"/><circle cx="465" cy="200" r="4" fill="#46c7e8"/><text x="40" y="410" font-family="Inter,Arial" font-weight="700" font-size="26" fill="#e8eef5">Brain-Machine Interface (BMI)</text><text x="40" y="436" font-family="Inter,Arial" font-size="15" fill="#9fb2c4">EEG Signal Processing · Neural Interface</text></svg>
