<svg xmlns="http://www.w3.org/2000/svg" viewBox="0 0 1000 420" width="1000" height="420" font-family="Inter,Arial,sans-serif">
<defs>
<linearGradient id="bg" x1="0" y1="0" x2="1" y2="1"><stop offset="0" stop-color="#0a2135"/><stop offset="1" stop-color="#0b2740"/></linearGradient>
<linearGradient id="ac" x1="0" y1="0" x2="1" y2="0"><stop offset="0" stop-color="#46c7e8"/><stop offset="1" stop-color="#18a6a6"/></linearGradient>
<marker id="arw" markerWidth="12" markerHeight="12" refX="7" refY="4" orient="auto"><path d="M0,0 L8,4 L0,8 Z" fill="#46c7e8"/></marker>
</defs>
<rect width="1000" height="420" fill="url(#bg)"/><text x="40" y="52" font-size="26" font-weight="700" fill="#e8eef5">Databricks Generative AI Engineer Associate</text><text x="40" y="80" font-size="15" fill="#9fb2c4">RAG: chunk &amp; embed → vector search → grounded generation</text><rect x="60" y="210" width="185" height="90" rx="14" fill="#123f66" fill-opacity="0.06" stroke="#46c7e8" stroke-opacity="0.45"/><text x="152.5" y="251.0" text-anchor="middle" font-size="17" font-weight="700" fill="#e8eef5">Documents</text><text x="152.5" y="275.0" text-anchor="middle" font-size="12.5" fill="#9fb2c4">chunk</text><path d="M 245 255.0 L 279 255.0" stroke="#46c7e8" stroke-width="3" marker-end="url(#arw)"/><rect x="285" y="210" width="185" height="90" rx="14" fill="#2386c8" fill-opacity="0.06" stroke="#46c7e8" stroke-opacity="0.45"/><text x="377.5" y="251.0" text-anchor="middle" font-size="17" font-weight="700" fill="#e8eef5">Embeddings</text><text x="377.5" y="275.0" text-anchor="middle" font-size="12.5" fill="#9fb2c4">vectors</text><path d="M 470 255.0 L 504 255.0" stroke="#46c7e8" stroke-width="3" marker-end="url(#arw)"/><rect x="510" y="210" width="185" height="90" rx="14" fill="#1769aa" fill-opacity="0.06" stroke="#46c7e8" stroke-opacity="0.45"/><text x="602.5" y="251.0" text-anchor="middle" font-size="17" font-weight="700" fill="#e8eef5">Vector Search</text><text x="602.5" y="275.0" text-anchor="middle" font-size="12.5" fill="#9fb2c4">retrieve top-k</text><path d="M 695 255.0 L 729 255.0" stroke="#46c7e8" stroke-width="3" marker-end="url(#arw)"/><rect x="735" y="210" width="185" height="90" rx="14" fill="#18a6a6" fill-opacity="0.06" stroke="#46c7e8" stroke-opacity="0.45"/><text x="827.5" y="251.0" text-anchor="middle" font-size="17" font-weight="700" fill="#e8eef5">LLM</text><text x="827.5" y="275.0" text-anchor="middle" font-size="12.5" fill="#9fb2c4">grounded answer</text><rect x="60" y="330" width="165.6" height="30" rx="15" fill="#ffffff" fill-opacity="0.05" stroke="#46c7e8" stroke-opacity="0.3"/><text x="142.8" y="350" text-anchor="middle" font-size="13" fill="#46c7e8">Prompt engineering</text><rect x="237.6" y="330" width="100.0" height="30" rx="15" fill="#ffffff" fill-opacity="0.05" stroke="#46c7e8" stroke-opacity="0.3"/><text x="287.6" y="350" text-anchor="middle" font-size="13" fill="#46c7e8">Evaluation</text><rect x="349.6" y="330" width="100.0" height="30" rx="15" fill="#ffffff" fill-opacity="0.05" stroke="#46c7e8" stroke-opacity="0.3"/><text x="399.6" y="350" text-anchor="middle" font-size="13" fill="#46c7e8">Guardrails</text><rect x="461.6" y="330" width="124.6" height="30" rx="15" fill="#ffffff" fill-opacity="0.05" stroke="#46c7e8" stroke-opacity="0.3"/><text x="523.9" y="350" text-anchor="middle" font-size="13" fill="#46c7e8">Model Serving</text><rect x="598.2" y="330" width="67.19999999999999" height="30" rx="15" fill="#ffffff" fill-opacity="0.05" stroke="#46c7e8" stroke-opacity="0.3"/><text x="631.8000000000001" y="350" text-anchor="middle" font-size="13" fill="#46c7e8">MLflow</text></svg>